<?xml version="1.0" encoding="utf-8"?>
<!-- Svg Vector Icons : http://www.onlinewebfonts.com/icon -->
<!DOCTYPE svg PUBLIC "-//W3C//DTD SVG 1.1//EN" "http://www.w3.org/Graphics/SVG/1.1/DTD/svg11.dtd">
<svg version="1.1" xmlns="http://www.w3.org/2000/svg" xmlns:xlink="http://www.w3.org/1999/xlink" x="0px" y="0px" viewBox="0 0 1000 1000" enable-background="new 0 0 1000 1000" xml:space="preserve">
<metadata> Svg Vector Icons : http://www.onlinewebfonts.com/icon </metadata>
<g><path d="M990,445.5V10L846.5,153.5C757.8,64.9,635.3,10,500,10C229.4,10,10,229.4,10,500c0,270.6,219.4,490,490,490c144.1,0,273.7-62.2,363.4-161.3L747.7,713C687.8,782.6,599,826.7,500,826.7c-180.4,0-326.7-146.3-326.7-326.6c0-180.4,146.3-326.7,326.7-326.7c90.2,0,171.8,36.6,231,95.7L554.4,445.5L990,445.5L990,445.5z"/></g>
</svg>